# xmcd
#
# Track frame offsets: 
#        150
#        20125
#        37362
#        53470
#        73535
#        95747
#        116632
#        134062
#        155257
#        171585
#
# Disc length: 2561 seconds
#
# Revision: 1
# Processed by: cddbd v1.5.2PL0 Copyright (c) Steve Scherf et al.
# Submitted via: ExactAudioCopyFreeDBPlugin 1.0
#
DISCID=9509ff0a
DTITLE=謝金燕 - 嗆聲
DYEAR=2006
DGENRE=Pop
TTITLE0=嗆聲
TTITLE1=因為你
TTITLE2=紅色玫瑰
TTITLE3=賣火柴小女孩
TTITLE4=愛哭愛跟路
TTITLE5=秋風探戈
TTITLE6=Yo Yo舞步
TTITLE7=酸甘蜜甜
TTITLE8=算什麼
TTITLE9=永遠的期待
EXTD=
EXTT0=
EXTT1=
EXTT2=
EXTT3=
EXTT4=
EXTT5=
EXTT6=
EXTT7=
EXTT8=
EXTT9=
PLAYORDER=
